#!OML:ASF X:\für Bonn\!DataBase\2005_08_12_Daniel\c3d\Daniel.ASF
:FULLY-SPECIFIED
:DEGREES
66
root -3.56304 17.3238 -0.779656 360.46 -75.1659 -391.926
lowerback 54.2924 -16.0274 -10.9153
upperback 14.6647 -28.3515 -2.4104
thorax -0.511037 -15.9183 11.7311
lowerneck 5.47873 13.4622 -1.75643
upperneck 11.5847 17.313 -1.49873
head 2.80681 8.1933 -0.0760595
rclavicle -3.89618e-014 7.95139e-014
rhumerus -59.5697 5.57768 -72.7689
rradius 52.1288
rwrist 0.304069
rhand -30.6648 41.0944
rfingers 7.12502
rthumb -3.95944 11.1515
lclavicle -3.89618e-014 7.95139e-014
lhumerus 45.2504 3.70841 82.8402
lradius 133.412
lwrist 47.4556
lhand -2.67976 -14.3055
lfingers 7.12502
lthumb 23.0213 14.3396
rfemur -91.4325 -20.4666 29.6603
rtibia 127.412
rfoot 2.33743 14.5033
rtoes -11.9459
lfemur 18.2193 -8.64558 -20.0107
ltibia 26.6476
lfoot -14.1946 -2.7384
ltoes 8.26914
67
root -3.55978 17.3227 -0.763774 361.076 -75.4215 -392.226
lowerback 53.7319 -16.0252 -10.7769
upperback 14.6866 -28.2078 -2.44608
thorax -0.51026 -15.8254 11.5806
lowerneck 5.22818 13.3834 -1.8504
upperneck 11.8219 17.2105 -1.39201
head 2.91043 8.13166 -0.00449124
rclavicle 7.63333e-014 -6.99722e-014
rhumerus -59.2274 5.62168 -72.7871
rradius 52.7692
rwrist -0.018972
rhand -30.4429 41.2612
rfingers 7.12502
rthumb -3.74514 11.3144
lclavicle 7.63333e-014 -6.99722e-014
lhumerus 45.8071 3.8411 82.2585
lradius 133.473
lwrist 48.3838
lhand -3.31782 -13.9759
lfingers 7.12502
lthumb 22.4089 14.7443
rfemur -90.6493 -20.7977 29.3718
rtibia 127.027
rfoot 2.88047 14.4557
rtoes -11.5177
lfemur 17.7738 -8.55941 -19.9967
ltibia 26.9265
lfoot -14.3472 -2.74989
ltoes 8.2733
68
root -3.55675 17.3257 -0.749018 361.708 -75.6746 -392.478
lowerback 53.0399 -16.029 -10.6239
upperback 14.7187 -28.0482 -2.48142
thorax -0.485324 -15.7247 11.4064
lowerneck 5.05211 13.2932 -1.9765
upperneck 12.0128 17.0877 -1.28808
head 2.98331 8.0602 0.0630208
rclavicle -7.15625e-015 7.79236e-014
rhumerus -58.8367 5.59981 -72.7525
rradius 53.5024
rwrist -0.238317
rhand -30.199 41.5119
rfingers 7.12502
rthumb -3.50963 11.561
lclavicle -7.15625e-015 7.79236e-014
lhumerus 46.251 3.90188 81.6384
lradius 133.57
lwrist 49.1575
lhand -3.61915 -13.7179
lfingers 7.12502
lthumb 22.1196 15.0368
rfemur -89.7267 -21.1433 29.0037
rtibia 126.565
rfoot 3.259 14.4512
rtoes -10.8717
lfemur 17.2918 -8.53576 -20.0217
ltibia 27.1656
lfoot -14.5175 -2.67036
ltoes 8.31708
69
root -3.55379 17.3298 -0.736141 362.326 -75.9391 -392.685
lowerback 52.2906 -16.0222 -10.471
upperback 14.7481 -27.8701 -2.52013
thorax -0.456278 -15.6128 11.2174
lowerneck 4.90987 13.191 -2.04551
upperneck 12.2002 16.9517 -1.23101
head 3.05979 7.98315 0.106351
rclavicle -2.62396e-014 1.74931e-014
rhumerus -58.392 5.464 -72.6901
rradius 54.2922
rwrist -0.288363
rhand -30.0018 41.8194
rfingers 7.12502
rthumb -3.31917 11.8655
lclavicle -2.62396e-014 1.74931e-014
lhumerus 46.5958 3.95769 81.0002
lradius 133.673
lwrist 49.8148
lhand -3.63534 -13.5524
lfingers 7.12502
lthumb 22.1041 15.2041
rfemur -88.6521 -21.4515 28.5445
rtibia 126.022
rfoot 3.50017 14.4722
rtoes -10.6391
lfemur 16.7722 -8.49809 -20.0519
ltibia 27.41
lfoot -14.6904 -2.61096
ltoes 8.2704
70
root -3.55345 17.3303 -0.725397 362.929 -76.1914 -392.841
lowerback 51.4866 -16.0176 -10.3402
upperback 14.753 -27.6978 -2.52971
thorax -0.419221 -15.5049 11.0589
lowerneck 4.80135 13.0948 -2.19303
upperneck 12.368 16.8196 -1.18012
head 3.11771 7.90478 0.155171
rclavicle 1.59028e-015 -6.36111e-014
rhumerus -57.8048 5.29288 -72.5773
rradius 55.1046
rwrist -0.20585
rhand -29.8367 42.0302
rfingers 7.12502
rthumb -3.15979 12.0739
lclavicle 1.59028e-015 -6.36111e-014
lhumerus 46.8003 4.00128 80.4341
lradius 133.756
lwrist 50.2737
lhand -3.42699 -13.391
lfingers 7.12502
lthumb 22.3041 15.3418
rfemur -87.4523 -21.7376 28.02
rtibia 125.429
rfoot 3.53659 14.4542
rtoes -11.248
lfemur 16.2048 -8.50239 -20.0993
ltibia 27.6989
lfoot -14.903 -2.54422
ltoes 8.31115
71
root -3.55332 17.3281 -0.716109 363.483 -76.4463 -392.899
lowerback 50.6626 -16.0038 -10.2088
upperback 14.686 -27.5023 -2.5012
thorax -0.440993 -15.3725 10.9419
lowerneck 4.7645 12.9769 -2.30199
upperneck 12.5414 16.6582 -1.18869
head 3.17505 7.8106 0.175871
rclavicle -3.73715e-014 6.67916e-014
rhumerus -57.1957 5.08709 -72.4253
rradius 55.9936
rwrist -0.0512358
rhand -29.6954 42.1146
rfingers 7.12502
rthumb -3.02326 12.1562
lclavicle -3.73715e-014 6.67916e-014
lhumerus 46.839 3.94849 79.8951
lradius 133.786
lwrist 50.425
lhand -3.2221 -13.3179
lfingers 7.12502
lthumb 22.5008 15.3911
rfemur -86.1182 -21.9814 27.4291
rtibia 124.746
rfoot 3.50285 14.388
rtoes -11.9721
lfemur 15.5371 -8.52823 -20.1803
ltibia 28.0665
lfoot -15.1658 -2.44351
ltoes 8.25205
72
root -3.55516 17.322 -0.70715 364.057 -76.7086 -392.981
lowerback 48.9232 -16.0512 -10.0269
upperback 15.5876 -27.2064 -3.11546
thorax -0.438358 -15.2162 10.9172
lowerneck 4.81764 12.8511 -2.40646
upperneck 12.7235 16.4763 -1.18029
head 3.21876 7.7055 0.194601
rclavicle 2.22639e-014 7.63333e-014
rhumerus -56.6351 4.96588 -72.3272
rradius 56.9912
rwrist 0.030444
rhand -29.5841 42.045
rfingers 7.12502
rthumb -2.91578 12.0852
lclavicle 2.22639e-014 7.63333e-014
lhumerus 46.7151 3.84514 79.3069
lradius 133.75
lwrist 50.3711
lhand -3.15009 -13.32
lfingers 7.12502
lthumb 22.5699 15.3807
rfemur -84.6275 -22.1842 26.7823
rtibia 124.008
rfoot 3.52224 14.2781
rtoes -12.095
lfemur 14.8533 -8.56022 -20.2672
ltibia 28.4938
lfoot -15.4822 -2.35088
ltoes 8.22168
73
root -3.55758 17.3157 -0.699133 364.632 -76.9681 -393.031
lowerback 48.1265 -16.0358 -9.87538
upperback 15.3863 -27.0005 -3.01485
thorax -0.533042 -15.0611 10.8323
lowerneck 4.91792 12.7299 -2.51806
upperneck 12.8985 16.2988 -1.21011
head 3.25532 7.60052 0.199317
rclavicle -5.24792e-014 1.59028e-014
rhumerus -56.081 4.97614 -72.2842
rradius 58.0912
rwrist 0.0891448
rhand -29.5522 41.7429
rfingers 7.12502
rthumb -2.88497 11.7827
lclavicle -5.24792e-014 1.59028e-014
lhumerus 46.3956 3.77494 78.6571
lradius 133.66
lwrist 50.1883
lhand -3.22676 -13.4402
lfingers 7.12502
lthumb 22.4963 15.2694
rfemur -83.0246 -22.3364 26.0421
rtibia 123.206
rfoot 3.59078 14.1827
rtoes -12.0241
lfemur 14.1239 -8.61398 -20.3629
ltibia 28.9507
lfoot -15.814 -2.22849
ltoes 8.12963
74
root -3.56179 17.3098 -0.691802 365.247 -77.2433 -393.14
lowerback 47.3285 -16.0026 -9.71276
upperback 15.171 -26.7704 -2.90108
thorax -0.639439 -14.893 10.7498
lowerneck 5.02703 12.6006 -2.62061
upperneck 13.0918 16.111 -1.26286
head 3.3001 7.4888 0.195992
rclavicle 6.04305e-014 -3.18055e-014
rhumerus -55.536 5.02673 -72.2661
rradius 59.2365
rwrist 0.147976
rhand -29.5785 41.3522
rfingers 7.12502
rthumb -2.91045 11.3923
lclavicle 6.04305e-014 -3.18055e-014
lhumerus 45.9135 3.64026 78.0662
lradius 133.576
lwrist 49.8269
lhand -3.42263 -13.5061
lfingers 7.12502
lthumb 22.3083 15.2262
rfemur -81.2712 -22.4239 25.1955
rtibia 122.359
rfoot 3.68305 14.1527
rtoes -11.6111
lfemur 13.4293 -8.67228 -20.4611
ltibia 29.3938
lfoot -16.1937 -2.07575
ltoes 8.07788
75
root -3.56609 17.3064 -0.684976 365.755 -77.522 -393.128
lowerback 46.53 -15.9488 -9.57829
upperback 14.9303 -26.5276 -2.76221
thorax -0.749447 -14.7195 10.6983
lowerneck 5.09137 12.4628 -2.74869
upperneck 13.3073 15.9149 -1.31484
head 3.3585 7.37075 0.200384
rclavicle -4.6118e-014 -8.74653e-014
rhumerus -54.9919 5.15707 -72.2974
rradius 60.4274
rwrist 0.194715
rhand -29.6513 40.856
rfingers 7.12502
rthumb -2.98073 10.8971
lclavicle -4.6118e-014 -8.74653e-014
lhumerus 45.3546 3.43521 77.6122
lradius 133.504
lwrist 49.3669
lhand -3.6591 -13.5519
lfingers 7.12502
lthumb 22.0813 15.2074
rfemur -79.4731 -22.496 24.2601
rtibia 121.482
rfoot 3.80522 14.0016
rtoes -11.1006
lfemur 12.742 -8.76545 -20.6092
ltibia 29.807
lfoot -16.5838 -1.85003
ltoes 8.03074
76
root -3.57199 17.3025 -0.678886 366.312 -77.8067 -393.165
lowerback 45.7366 -15.8986 -9.43947
upperback 14.6644 -26.2878 -2.61825
thorax -0.881619 -14.5431 10.6551
lowerneck 5.15653 12.3389 -2.93919
upperneck 13.5604 15.7296 -1.32866
head 3.42148 7.25342 0.226468
rclavicle 5.96354e-014 6.52014e-014
rhumerus -54.4161 5.42082 -72.3796
rradius 61.5632
rwrist 0.217048
rhand -29.831 40.3004
rfingers 7.12502
rthumb -3.15423 10.3439
lclavicle 5.96354e-014 6.52014e-014
lhumerus 44.7566 3.1751 77.2696
lradius 133.449
lwrist 48.8693
lhand -3.90734 -13.473
lfingers 7.12502
lthumb 21.8429 15.3142
rfemur -77.616 -22.488 23.3364
rtibia 120.545
rfoot 3.99339 13.6413
rtoes -10.6332
lfemur 12.0929 -8.85489 -20.7406
ltibia 30.1547
lfoot -16.9613 -1.65141
ltoes 8.02934
77
root -3.57922 17.3003 -0.674058 366.848 -78.0965 -393.193
lowerback 44.9489 -15.8303 -9.31303
upperback 14.3916 -26.0338 -2.47803
thorax -1.01698 -14.3596 10.6086
lowerneck 5.20733 12.2134 -3.06314
upperneck 13.8459 15.5471 -1.37137
head 3.50761 7.13754 0.236757
rclavicle -1.22451e-013 -1.90833e-014
rhumerus -53.8211 5.72452 -72.516
rradius 62.6439
rwrist 0.234105
rhand -30.039 39.8049
rfingers 7.12502
rthumb -3.35513 9.85157
lclavicle -1.22451e-013 -1.90833e-014
lhumerus 44.1167 2.90191 77.0242
lradius 133.378
lwrist 48.433
lhand -4.03976 -13.3403
lfingers 7.12502
lthumb 21.7158 15.4617
rfemur -75.6568 -22.3754 22.4529
rtibia 119.511
rfoot 4.02016 13.1178
rtoes -10.9919
lfemur 11.4966 -8.94029 -20.8824
ltibia 30.4374
lfoot -17.3492 -1.4006
ltoes 8.00204
78
root -3.58607 17.3019 -0.669398 367.483 -78.3665 -393.35
lowerback 44.149 -15.7551 -9.17231
upperback 14.1482 -25.7705 -2.34185
thorax -1.11756 -14.1788 10.5382
lowerneck 5.38467 12.0871 -3.17288
upperneck 14.0105 15.3579 -1.44556
head 3.53298 7.02378 0.222051
rclavicle 4.69132e-014 -1.59028e-014
rhumerus -53.1762 6.06232 -72.6959
rradius 63.6741
rwrist 0.186658
rhand -30.266 39.4516
rfingers 7.12502
rthumb -3.57438 9.50183
lclavicle 4.69132e-014 -1.59028e-014
lhumerus 43.5233 2.61122 76.8059
lradius 133.248
lwrist 48.0383
lhand -4.22036 -13.2638
lfingers 7.12502
lthumb 21.5423 15.5581
rfemur -73.5675 -22.1621 21.6332
rtibia 118.339
rfoot 3.90279 12.4733
rtoes -11.6366
lfemur 10.9624 -8.96012 -20.9774
ltibia 30.6485
lfoot -17.6878 -1.11283
ltoes 7.79224
